# xmcd
#
# Track frame offsets:
#	150
#	12156
#	22791
#	34405
#	43553
#	51732
#	62598
#	72182
#	83656
#	99666
#	111146
#	122001
#
# Disc length: 1766 seconds
#
# Revision: 0
# Processed by: cddbd v1.4PL0 Copyright (c) Steve Scherf et al.
# Submitted via: EasyCDDAExtractor 5.0.4.1
#
DISCID=9906e40c
DTITLE=Kenny Baker - Frost On The Pumpkin
DYEAR=2002
DGENRE=Bluegrass
TTITLE0=Bluegrass In The Backwoods
TTITLE1=K and B Polka
TTITLE2=Music City Waltz
TTITLE3=Make A Little Boat
TTITLE4=Cheyenne Breakdown
TTITLE5=Pass Me Not
TTITLE6=Frost On The Pumpkin
TTITLE7=Growlin' Old Man and Growlin' Old Woman
TTITLE8=Lisa Ann Waltz
TTITLE9=Back Up and Push
TTITLE10=McClanahan's Reel
TTITLE11=Silver Threads Among The Gold
EXTD=
EXTT0=
EXTT1=
EXTT2=
EXTT3=
EXTT4=
EXTT5=
EXTT6=
EXTT7=
EXTT8=
EXTT9=
EXTT10=
EXTT11=
PLAYORDER=
